<svg width="244" height="244" viewBox="0 0 244 244" fill="none" xmlns="http://www.w3.org/2000/svg">
<rect width="244" height="244" fill="white"/>
<g clip-path="url(#clip0_2308_2)">
<mask id="mask0_2308_2" style="mask-type:luminance" maskUnits="userSpaceOnUse" x="28" y="28" width="189" height="189">
<path d="M210.665 28H34.3352C30.8364 28 28 30.8364 28 34.3352V210.665C28 214.164 30.8364 217 34.3352 217H210.665C214.164 217 217 214.164 217 210.665V34.3352C217 30.8364 214.164 28 210.665 28Z" fill="white"/>
</mask>
<g mask="url(#mask0_2308_2)">
<path d="M210.665 28H34.3352C30.8364 28 28 30.8364 28 34.3352V210.665C28 214.164 30.8364 217 34.3352 217H210.665C214.164 217 217 214.164 217 210.665V34.3352C217 30.8364 214.164 28 210.665 28Z" stroke="black" stroke-width="20"/>
</g>
<mask id="mask1_2308_2" style="mask-type:luminance" maskUnits="userSpaceOnUse" x="28" y="28" width="143" height="143">
<path d="M164.207 28H34.3352C30.8364 28 28 30.8364 28 34.3352V164.207C28 167.706 30.8364 170.542 34.3352 170.542H164.207C167.706 170.542 170.542 167.706 170.542 164.207V34.3352C170.542 30.8364 167.706 28 164.207 28Z" fill="white"/>
</mask>
<g mask="url(#mask1_2308_2)">
<path d="M164.207 28H34.3352C30.8364 28 28 30.8364 28 34.3352V164.207C28 167.706 30.8364 170.542 34.3352 170.542H164.207C167.706 170.542 170.542 167.706 170.542 164.207V34.3352C170.542 30.8364 167.706 28 164.207 28Z" stroke="black" stroke-width="20"/>
</g>
<mask id="mask2_2308_2" style="mask-type:luminance" maskUnits="userSpaceOnUse" x="28" y="28" width="100" height="100">
<path d="M120.916 28H34.3352C30.8364 28 28 30.8364 28 34.3352V120.916C28 124.415 30.8364 127.251 34.3352 127.251H120.916C124.415 127.251 127.251 124.415 127.251 120.916V34.3352C127.251 30.8364 124.415 28 120.916 28Z" fill="white"/>
</mask>
<g mask="url(#mask2_2308_2)">
<path d="M120.916 28H34.3352C30.8364 28 28 30.8364 28 34.3352V120.916C28 124.415 30.8364 127.251 34.3352 127.251H120.916C124.415 127.251 127.251 124.415 127.251 120.916V34.3352C127.251 30.8364 124.415 28 120.916 28Z" stroke="black" stroke-width="20"/>
</g>
<mask id="mask3_2308_2" style="mask-type:luminance" maskUnits="userSpaceOnUse" x="28" y="28" width="58" height="58">
<path d="M78.6816 28H34.3352C30.8364 28 28 30.8364 28 34.3352V78.6816C28 82.1804 30.8364 85.0168 34.3352 85.0168H78.6816C82.1804 85.0168 85.0168 82.1804 85.0168 78.6816V34.3352C85.0168 30.8364 82.1804 28 78.6816 28Z" fill="white"/>
</mask>
<g mask="url(#mask3_2308_2)">
<path d="M78.6816 28H34.3352C30.8364 28 28 30.8364 28 34.3352V78.6816C28 82.1804 30.8364 85.0168 34.3352 85.0168H78.6816C82.1804 85.0168 85.0168 82.1804 85.0168 78.6816V34.3352C85.0168 30.8364 82.1804 28 78.6816 28Z" stroke="black" stroke-width="20"/>
</g>
</g>
<defs>
<clipPath id="clip0_2308_2">
<rect width="189" height="189" fill="white" transform="translate(28 28)"/>
</clipPath>
</defs>
</svg>
